<?xml version="1.0" standalone="no"?>
<!DOCTYPE svg PUBLIC "-//W3C//DTD SVG 20010904//EN"
 "http://www.w3.org/TR/2001/REC-SVG-20010904/DTD/svg10.dtd">
<svg version="1.0" xmlns="http://www.w3.org/2000/svg"
 width="2000.000000pt" height="2000.000000pt" viewBox="0 0 2000.000000 2000.000000"
 preserveAspectRatio="xMidYMid meet">

<g transform="translate(0.000000,2000.000000) scale(0.100000,-0.100000)"
fill="#000000" stroke="none">
<path d="M12646 17473 c-14 -14 -5 -44 22 -68 43 -41 141 -108 222 -153 56
-30 107 -72 195 -160 66 -65 165 -152 220 -195 l99 -76 1 -262 0 -262 -119 7
c-66 3 -271 6 -458 6 l-338 0 0 214 c0 209 0 214 20 209 15 -4 20 0 20 15 0
24 -53 71 -317 279 -140 111 -195 162 -247 227 -37 46 -84 100 -105 119 -52
47 -128 90 -146 83 -31 -11 -13 -36 53 -72 48 -27 114 -84 232 -198 91 -89
228 -215 304 -281 135 -118 138 -121 132 -155 -3 -19 -8 -126 -12 -237 l-7
-202 -246 -1 c-135 -1 -275 -3 -311 -4 -36 -1 -226 -3 -422 -4 -346 -2 -358
-3 -358 -21 0 -11 8 -22 18 -25 113 -35 896 -35 1263 0 l66 6 6 -189 c3 -123
12 -219 24 -278 17 -83 18 -154 17 -970 0 -847 -1 -885 -21 -1020 -12 -77 -25
-210 -28 -296 l-7 -157 -72 -6 c-42 -4 -129 -1 -215 9 -79 8 -210 15 -291 15
-81 0 -162 3 -180 6 l-32 7 60 61 c188 192 406 533 471 735 28 85 66 270 85
409 20 143 20 182 2 182 -21 0 -25 -22 -25 -150 1 -126 -12 -192 -65 -347 -97
-285 -241 -518 -449 -728 l-119 -120 6 95 c3 52 15 147 27 210 43 242 33 456
-31 710 -81 320 -198 559 -422 860 -166 224 -236 288 -370 340 -99 38 -348
101 -581 146 -100 19 -240 46 -312 60 -77 15 -207 51 -321 90 -280 95 -388
110 -593 79 -120 -18 -170 -34 -279 -88 -124 -61 -163 -103 -195 -207 -16 -52
-38 -100 -57 -122 -32 -39 -187 -141 -201 -133 -9 6 -26 85 -33 158 -6 56 -6
57 19 57 17 0 25 6 25 18 0 14 2 15 10 2 17 -26 68 37 126 155 29 61 71 133
92 160 l38 50 85 -5 c261 -15 495 5 619 53 54 22 75 49 47 60 -8 3 -82 -5
-163 -18 -122 -19 -393 -42 -504 -44 l-25 0 25 19 c48 38 246 157 355 215 127
66 175 100 175 121 0 22 -45 17 -103 -12 -93 -48 -526 -344 -561 -385 -19 -22
-59 -87 -91 -144 -31 -57 -72 -125 -92 -152 l-35 -48 4 55 c5 66 40 139 138
285 82 122 130 213 123 232 -11 29 -36 9 -87 -70 -132 -205 -195 -342 -213
-467 l-7 -55 -6 40 c-3 22 -2 81 2 130 6 87 9 95 89 252 80 159 91 199 52 191
-32 -6 -154 -277 -175 -386 -14 -77 -3 -263 23 -387 20 -93 20 -100 4 -110
-87 -52 -178 -119 -221 -162 -55 -55 -159 -200 -214 -298 -21 -36 -105 -136
-214 -255 -100 -107 -201 -216 -225 -242 -27 -30 -41 -53 -37 -63 16 -44 53
-7 382 393 l21 26 -18 -69 c-10 -39 -18 -82 -18 -96 -2 -53 -46 -154 -118
-267 -96 -150 -116 -190 -164 -330 -42 -120 -77 -196 -112 -244 -12 -16 -81
-83 -154 -149 l-133 -120 0 103 c0 201 -33 307 -127 414 -68 78 -160 153 -224
184 l-46 22 2 167 c1 185 12 242 100 511 35 107 50 139 65 143 16 4 20 14 20
44 0 99 90 332 216 561 53 95 63 125 45 136 -32 20 -82 -69 -190 -337 -32 -82
-62 -151 -65 -154 -3 -4 -6 11 -7 33 0 21 -4 120 -10 219 -5 99 -12 240 -15
313 l-7 132 30 -6 c51 -10 50 14 -2 37 -26 11 -44 23 -42 26 3 2 54 0 113 -6
142 -14 380 -13 422 2 49 17 40 32 -21 33 -28 1 -163 5 -299 9 l-248 8 0 -27
c0 -14 -3 -26 -7 -26 -34 2 -195 172 -381 405 -97 121 -229 272 -293 335 -64
63 -132 141 -152 173 -37 58 -67 74 -67 36 0 -35 65 -113 278 -334 119 -123
245 -264 302 -340 111 -146 169 -206 253 -262 l58 -39 4 -70 c4 -65 19 -367
32 -665 l6 -136 -61 -189 c-86 -264 -104 -356 -127 -641 -7 -78 -9 -83 -30
-83 -12 0 -35 -3 -51 -6 -24 -4 -31 -1 -39 17 -6 15 -61 51 -155 102 -80 44
-191 109 -248 144 -93 58 -132 71 -132 44 0 -5 13 -21 30 -34 44 -37 280 -183
386 -238 90 -47 91 -48 60 -55 -52 -11 -136 -56 -163 -89 -36 -41 -83 -146
-131 -290 -53 -160 -67 -283 -52 -460 15 -172 31 -251 90 -426 62 -184 113
-290 159 -332 31 -28 37 -40 39 -80 1 -26 9 -75 18 -109 35 -138 46 -247 33
-340 -6 -49 -15 -88 -18 -88 -3 0 -64 20 -136 44 -233 78 -285 88 -285 56 0
-16 55 -36 149 -54 61 -12 108 -29 170 -63 47 -25 87 -47 88 -48 3 -2 -42
-148 -118 -384 -79 -242 -103 -339 -129 -507 -26 -175 -46 -234 -119 -360 -32
-56 -64 -118 -71 -138 -18 -57 6 -130 36 -105 11 9 11 15 -2 34 -14 22 -13 28
14 82 16 32 49 94 74 138 60 104 73 144 103 325 32 192 49 258 146 570 113
364 129 433 129 552 0 54 -5 129 -10 166 -18 116 -37 257 -35 259 7 11 430
-156 463 -182 2 -2 -13 -36 -34 -76 -64 -129 -82 -187 -94 -320 -24 -244 -5
-336 120 -577 140 -269 268 -436 402 -524 57 -38 162 -132 337 -301 200 -195
266 -253 314 -277 66 -33 97 -38 97 -16 0 18 -36 44 -120 86 -53 27 -97 65
-240 210 -119 120 -213 205 -295 265 -184 136 -233 191 -370 409 -71 114 -161
295 -190 381 -34 101 -28 382 12 505 24 74 94 193 121 205 12 6 20 16 17 23
-3 8 -5 17 -5 22 0 4 -60 37 -132 73 -94 46 -165 73 -243 92 -196 48 -230 73
-290 209 l-26 59 28 -18 c15 -10 37 -24 48 -32 25 -17 69 -17 84 1 8 10 10 38
5 90 -6 64 -4 76 8 76 9 0 18 9 21 20 4 17 14 20 62 20 73 0 89 -10 126 -75
42 -74 73 -98 119 -90 50 9 83 36 92 76 10 47 -4 89 -46 145 -43 57 -46 90
-11 161 51 102 178 195 226 165 23 -15 34 3 42 68 6 49 14 58 151 168 177 142
229 217 282 404 30 107 42 133 138 287 108 171 126 212 147 330 32 181 37 189
174 309 155 136 265 243 265 259 0 48 -57 12 -205 -128 -97 -93 -105 -99 -75
-54 94 141 165 210 303 294 45 27 69 37 71 29 2 -7 8 -31 14 -53 6 -22 16 -59
22 -82 6 -27 17 -43 26 -43 26 0 25 25 -4 118 l-30 91 66 38 c128 75 175 130
217 254 29 83 48 107 125 154 177 108 420 149 646 110 49 -9 181 -47 294 -85
241 -81 270 -89 500 -130 232 -41 513 -104 608 -136 112 -37 173 -78 271 -180
136 -143 344 -450 429 -633 86 -189 145 -415 167 -639 15 -158 12 -271 -16
-592 l-13 -135 -24 55 c-51 118 -175 258 -270 305 -28 14 -82 32 -120 40 -97
20 -265 34 -279 23 -17 -13 -5 -105 18 -143 20 -35 59 -65 259 -201 203 -138
229 -165 274 -289 20 -55 45 -121 56 -147 l18 -48 -70 -75 c-38 -41 -73 -75
-78 -75 -4 0 -15 30 -25 66 -36 132 -139 312 -222 384 -42 38 -151 90 -186 90
-37 0 -123 -29 -137 -45 -25 -30 4 -39 48 -16 70 36 133 24 225 -43 100 -72
198 -239 222 -377 8 -43 19 -88 25 -100 9 -16 8 -24 -3 -37 -8 -9 -35 -56 -60
-104 -42 -82 -45 -86 -51 -57 -13 66 -57 138 -125 202 -55 51 -99 80 -217 140
-82 42 -180 96 -219 121 -38 24 -73 42 -77 40 -26 -16 21 -70 100 -114 l41
-23 -31 -21 c-52 -35 -72 -70 -72 -126 0 -47 16 -82 30 -68 3 4 10 26 15 49 8
34 33 77 86 148 7 9 181 -74 245 -116 65 -43 121 -100 148 -152 10 -20 38
-120 40 -142 0 -3 -44 -9 -99 -12 -189 -13 -280 23 -424 169 -80 81 -96 93
-106 80 -18 -22 17 -75 89 -135 143 -120 257 -161 441 -161 l108 0 -29 -66
c-17 -36 -46 -112 -65 -168 l-35 -103 0 -209 c0 -209 0 -209 -26 -249 -38 -57
-51 -65 -108 -65 -28 0 -89 -4 -136 -10 -47 -5 -139 -14 -205 -21 -159 -15
-255 -33 -303 -58 -49 -25 -115 -98 -138 -155 l-18 -42 -144 -18 -144 -18
-111 56 c-105 53 -118 57 -202 62 -98 6 -211 -8 -410 -49 -66 -14 -162 -31
-212 -38 -51 -7 -93 -16 -93 -19 0 -16 43 -42 155 -95 116 -54 124 -60 245
-179 132 -130 201 -187 315 -256 141 -87 330 -133 432 -106 28 8 55 16 61 20
12 7 22 -138 22 -333 0 -86 4 -196 10 -246 5 -49 10 -136 11 -193 l3 -103
-105 -2 c-92 -2 -110 -6 -162 -32 -77 -38 -158 -126 -188 -202 -27 -71 -38
-218 -19 -262 12 -29 89 -108 140 -145 l25 -17 -35 -30 c-57 -50 -367 -253
-482 -317 -59 -32 -160 -80 -225 -107 -159 -65 -202 -92 -453 -280 -336 -253
-568 -398 -787 -490 -58 -24 -128 -61 -156 -82 -53 -39 -65 -46 -197 -106 -41
-19 -127 -74 -192 -123 -64 -49 -156 -111 -205 -138 -127 -71 -224 -138 -295
-205 l-62 -58 -76 68 c-143 130 -325 270 -398 305 -42 21 -110 68 -165 115
-109 95 -174 136 -189 121 -5 -5 -7 -20 -3 -32 8 -24 123 -113 242 -186 110
-68 232 -159 423 -317 91 -76 167 -137 170 -137 3 1 30 35 60 77 63 87 100
114 276 199 75 37 158 88 224 138 100 76 263 186 276 186 3 0 -9 -18 -27 -41
-17 -22 -35 -57 -40 -77 -4 -20 -27 -93 -51 -162 l-44 -124 -40 -8 c-88 -18
-177 -54 -339 -134 -162 -80 -266 -117 -358 -125 -40 -4 -21 -16 -359 216
-179 123 -242 158 -268 150 -22 -7 -18 -25 6 -25 9 0 66 -38 127 -84 62 -46
170 -123 240 -171 70 -48 135 -98 143 -111 20 -30 70 -44 154 -44 79 0 137 25
290 127 58 39 115 75 128 82 20 11 222 61 246 61 10 0 6 -24 -24 -160 -11 -52
-30 -160 -41 -240 -28 -195 -37 -715 -18 -1038 25 -448 17 -553 -75 -997 -33
-154 -36 -185 -36 -330 0 -143 -4 -185 -40 -385 -22 -123 -40 -251 -40 -285 0
-194 -99 -806 -167 -1032 -77 -260 -89 -328 -57 -340 20 -8 36 15 31 45 -6 34
8 100 58 267 73 247 148 680 165 951 6 98 23 236 45 359 31 167 38 235 44 415
8 195 12 230 46 380 52 235 71 359 74 489 2 90 6 121 22 150 25 46 24 56 -11
441 -16 179 -30 382 -30 452 0 181 18 416 41 532 38 187 186 678 223 736 12
19 28 49 34 65 10 24 37 43 144 99 150 79 144 84 85 -68 -19 -49 -44 -96 -56
-105 -58 -45 -125 -272 -162 -546 -19 -144 -23 -220 -24 -505 -1 -220 -7 -366
-15 -425 -10 -65 -13 -195 -12 -475 1 -212 -2 -423 -8 -470 -37 -317 -61 -501
-110 -815 -40 -258 -52 -320 -120 -615 -32 -140 -71 -336 -85 -435 -51 -352
-91 -501 -195 -725 -62 -133 -80 -193 -60 -205 22 -14 49 29 93 148 107 290
163 505 201 762 25 168 37 232 115 580 76 340 173 1013 197 1375 6 87 10 107
27 120 19 16 19 21 8 111 -37 294 -37 298 0 769 6 80 9 195 7 255 l-5 111 96
-4 c118 -5 258 22 538 102 414 120 719 228 818 291 56 36 118 101 110 116 -10
14 2 11 78 -23 40 -18 238 -89 442 -158 l369 -125 13 -50 c8 -32 13 -121 13
-248 0 -212 11 -295 66 -491 54 -194 104 -259 249 -331 41 -20 75 -39 75 -41
0 -3 -17 -2 -37 2 -21 4 -35 4 -32 0 4 -4 58 -15 120 -25 90 -14 188 -18 459
-20 282 -2 367 -6 465 -21 332 -52 856 -53 964 -1 19 9 43 27 53 41 18 24 18
27 -2 97 -11 40 -20 84 -20 97 0 13 -6 28 -12 34 -39 32 -221 110 -381 163
-212 71 -233 80 -493 200 -108 50 -253 109 -323 131 -69 21 -184 62 -256 90
-149 59 -833 368 -873 395 -15 9 -30 16 -34 15 -5 -1 -70 24 -145 56 -135 58
-265 103 -508 178 -144 44 -250 90 -359 154 -75 44 -183 137 -172 147 2 3 73
-5 157 -17 86 -13 182 -20 220 -18 59 3 75 8 125 43 128 89 137 239 22 362
-56 59 -123 100 -208 129 -85 28 -81 33 21 28 154 -8 203 -25 295 -101 93 -78
160 -111 389 -188 94 -32 177 -64 186 -72 9 -7 18 -11 21 -8 9 9 146 -44 300
-116 165 -77 303 -121 458 -144 290 -44 354 -56 465 -89 210 -60 284 -92 416
-177 68 -44 153 -94 189 -112 58 -29 73 -32 150 -31 157 1 334 59 380 124 22
32 44 123 55 233 4 45 12 70 21 74 41 15 -2 79 -114 172 -97 79 -130 115 -267
291 -153 196 -214 249 -445 387 -47 29 -118 81 -158 118 -172 155 -247 196
-491 269 -158 48 -207 69 -316 136 -111 68 -161 89 -307 131 -143 41 -350 119
-378 143 -8 8 -28 16 -44 20 -37 9 -176 85 -176 96 0 5 5 12 10 15 15 9 12 45
-3 45 -7 0 -22 -7 -33 -15 -29 -22 -38 -19 -100 37 -58 53 -85 99 -83 140 0
13 3 17 6 11 2 -7 37 -23 76 -35 56 -17 98 -22 183 -23 l112 0 105 53 c170 86
217 147 204 265 -4 28 -2 47 4 47 5 0 121 -42 257 -94 400 -152 534 -198 558
-192 37 10 320 -43 438 -81 203 -65 537 -252 944 -526 211 -142 241 -167 320
-266 18 -22 111 -108 206 -190 95 -83 179 -159 187 -169 8 -11 58 -73 111
-139 90 -110 133 -151 322 -301 55 -43 269 -177 378 -237 78 -42 89 -45 95
-29 10 26 -31 56 -234 169 -148 83 -190 112 -251 173 -47 46 -81 72 -95 72
-26 0 -89 63 -249 246 l-105 120 48 17 c59 21 83 54 105 138 21 83 15 140 -46
454 -83 421 -81 405 -90 750 -7 306 -9 324 -34 405 -20 63 -31 131 -42 265
-19 227 -31 279 -93 407 -50 104 -63 142 -81 236 -19 104 -37 301 -36 407 1
108 1 111 -29 149 -27 35 -30 46 -34 128 -1 49 0 109 3 132 9 57 61 117 129
149 52 25 165 53 187 45 6 -2 -18 -37 -53 -78 -82 -97 -87 -106 -87 -182 0
-77 23 -118 126 -227 87 -93 110 -105 205 -105 67 -1 79 2 112 27 l36 27 43
-72 c82 -141 108 -204 153 -378 31 -118 61 -209 94 -280 59 -126 61 -132 106
-338 40 -180 88 -329 141 -435 20 -38 33 -75 30 -83 -4 -10 -27 -14 -83 -15
-124 -2 -187 -12 -191 -30 -4 -20 25 -29 88 -28 52 0 180 22 199 33 7 5 20 1
31 -9 20 -19 50 -14 50 7 0 7 -21 49 -45 93 -90 159 -124 240 -155 371 -17 71
-41 175 -55 231 -15 64 -45 144 -80 217 -37 79 -65 155 -86 238 -52 214 -85
298 -173 444 -41 68 -43 80 -16 102 20 17 20 17 -5 96 -13 43 -29 120 -35 172
-17 157 -12 649 11 1015 26 415 22 606 -16 834 -25 146 -26 175 -21 340 3 99
10 225 15 280 19 195 11 1797 -11 2287 -7 136 -10 250 -7 252 2 2 99 0 214 -4
291 -12 455 -2 455 28 0 4 -42 8 -92 10 -51 1 -120 4 -153 6 -33 2 -150 7
-260 11 l-200 8 -104 61 c-105 62 -158 111 -264 246 -32 41 -70 72 -150 120
-58 36 -137 92 -174 126 -78 69 -88 76 -97 67z m674 -1216 l85 -12 7 -215 c20
-578 23 -682 17 -686 -3 -2 -35 2 -70 8 -76 13 -452 16 -661 4 -132 -7 -148
-10 -148 -26 0 -33 -3 -33 281 4 125 17 152 15 419 -24 79 -12 154 -19 166
-16 22 6 22 5 28 -227 3 -127 11 -356 17 -507 11 -247 10 -286 -5 -380 -41
-246 -40 -285 5 -560 29 -182 35 -451 14 -740 -23 -333 -30 -733 -16 -915 11
-138 35 -330 47 -381 7 -28 -15 -42 -31 -20 -27 37 -95 227 -106 296 -14 92
-26 116 -78 158 l-41 33 -62 -12 c-35 -6 -103 -19 -153 -30 -73 -16 -131 -19
-310 -19 -121 0 -226 4 -234 9 -17 11 -29 356 -30 824 -1 240 1 277 14 277 8
0 15 7 15 15 0 9 -7 18 -15 21 -12 5 -15 26 -15 103 l0 96 98 2 c53 1 162 9
242 17 204 22 384 21 487 -4 46 -11 102 -21 125 -22 38 -3 43 0 46 19 6 42
-44 46 -541 41 l-457 -4 6 150 c4 83 13 185 21 226 23 125 35 673 30 1340 -4
521 -8 638 -21 705 -12 61 -16 126 -14 262 l3 182 225 6 c123 3 226 7 228 9 9
10 307 4 382 -7z m-6806 -2096 c6 -67 4 -97 -7 -122 -19 -45 -106 -159 -262
-344 -70 -82 -141 -172 -157 -200 l-30 -50 6 147 c8 173 26 253 92 409 73 170
111 205 259 235 99 19 92 25 99 -75z m188 12 c26 -19 74 -67 107 -108 53 -67
61 -82 79 -162 23 -101 39 -212 47 -330 l5 -83 -26 -6 c-14 -4 -46 -22 -70
-40 -52 -40 -54 -40 -54 -14 0 10 -11 54 -25 97 -16 51 -21 81 -14 88 6 6 3
15 -10 25 -20 15 -101 251 -141 408 -21 85 -21 85 6 170 5 16 27 5 96 -45z
m-32 -504 c0 -13 -15 -17 -70 -22 -38 -3 -89 -14 -112 -25 -55 -24 -134 -109
-181 -194 -37 -66 -37 -67 -37 -185 0 -96 4 -126 20 -162 11 -24 20 -58 20
-76 0 -19 5 -56 12 -84 17 -76 2 -84 -64 -35 -29 21 -62 44 -73 50 -23 13 -46
76 -86 233 -33 128 -36 171 -14 171 11 0 13 9 9 43 -5 37 -1 49 34 102 22 33
81 107 132 165 135 152 204 241 246 316 l37 66 63 -173 c35 -96 63 -181 64
-190z m4515 147 c86 -40 224 -155 265 -221 10 -16 37 -83 59 -149 l41 -119
-17 -88 c-9 -49 -19 -86 -21 -84 -3 3 -18 37 -34 76 -58 146 -104 194 -303
320 -179 113 -234 159 -254 212 -21 54 -15 65 32 70 124 11 182 7 232 -17z
m-4480 -299 c9 -37 26 -84 36 -103 18 -36 18 -37 -6 -68 -32 -43 -77 -143 -77
-172 0 -13 18 -53 41 -88 52 -80 62 -125 32 -155 -39 -39 -66 -28 -116 48 -26
37 -58 74 -73 82 -17 8 -63 13 -121 14 -91 0 -94 1 -103 25 -5 14 -8 79 -6
145 3 102 7 127 27 165 36 70 69 109 110 130 43 21 223 61 232 51 3 -3 14 -36
24 -74z m5108 -184 c95 4 210 3 257 -2 47 -5 145 -15 218 -22 l132 -13 0 -73
0 -73 -55 0 c-30 0 -98 -4 -152 -10 -54 -5 -174 -17 -268 -25 -93 -9 -215 -20
-269 -25 -55 -5 -101 -8 -102 -7 -2 2 1 19 5 38 5 19 12 74 16 124 7 100 11
111 31 94 11 -9 60 -10 187 -6z m608 -455 c0 -270 16 -791 25 -841 l7 -38
-219 6 c-440 11 -574 15 -851 21 l-283 7 0 -21 c0 -21 4 -23 76 -37 11 -3 209
-5 440 -6 429 -2 822 -13 832 -24 3 -3 13 -64 22 -135 l16 -130 -61 5 c-79 8
-546 24 -559 20 -6 -2 -146 -6 -311 -9 -165 -4 -353 -9 -418 -12 l-117 -6 25
53 c24 51 25 63 25 239 0 204 9 278 46 390 34 103 174 383 227 452 58 77 206
230 217 223 4 -3 86 6 182 20 234 33 215 32 461 33 l217 2 1 -212z m874 -912
c8 -13 22 -56 30 -97 17 -90 38 -152 98 -288 26 -57 44 -108 40 -113 -10 -17
-71 -38 -111 -38 -84 0 -104 10 -185 92 -85 86 -101 114 -111 199 -7 55 -6 57
45 133 29 42 67 90 86 106 42 37 86 40 108 6z m-443 -50 c-45 -51 -57 -97 -57
-218 0 -60 -4 -108 -8 -108 -4 0 -22 8 -40 17 -18 9 -72 29 -122 43 l-90 26
-17 85 c-9 46 -19 105 -23 131 l-7 48 189 3 c103 1 192 3 197 5 4 1 -5 -13
-22 -32z m-630 -261 c119 -3 231 -10 250 -16 18 -5 53 -11 78 -13 63 -5 202
-62 249 -103 52 -44 58 -69 65 -273 5 -153 29 -325 56 -394 6 -17 4 -27 -7
-39 -19 -19 -42 -204 -43 -347 0 -58 10 -186 21 -285 18 -153 21 -239 22 -575
1 -217 -4 -465 -11 -550 -6 -85 -14 -225 -18 -311 l-6 -157 -123 106 c-162
138 -310 241 -587 407 -428 257 -529 299 -908 381 -91 20 -205 48 -255 64 -49
16 -187 55 -305 88 -266 74 -406 126 -427 159 -12 18 -22 23 -42 19 -23 -5
-122 22 -137 36 -2 3 -14 75 -25 159 -25 199 -39 750 -19 774 9 11 10 18 1 29
-15 18 3 331 24 411 17 62 39 105 54 105 5 0 9 15 8 33 -1 46 62 140 118 176
25 16 71 33 102 39 102 20 591 57 898 68 244 9 685 19 720 17 17 -1 128 -4
247 -8z m-2589 -253 c26 -11 68 -35 94 -54 54 -37 86 -40 193 -20 35 6 82 9
103 5 33 -5 38 -9 34 -27 -28 -116 -47 -220 -47 -263 0 -29 -3 -53 -6 -53 -4
0 -47 23 -98 52 -124 70 -413 211 -511 250 -78 31 -85 32 -280 37 l-200 6 98
13 c57 7 124 23 159 38 112 47 370 56 461 16z m-253 -146 c184 -72 465 -223
595 -321 28 -21 30 -26 27 -79 -4 -55 -5 -57 -45 -78 -31 -17 -59 -22 -107
-22 -185 2 -390 113 -601 325 -82 83 -138 130 -193 162 l-79 46 54 4 c30 3 99
3 154 2 88 -2 111 -7 195 -39z m3642 -625 c12 -37 25 -127 38 -266 14 -158 25
-230 44 -290 37 -118 46 -210 46 -478 0 -278 9 -353 74 -650 63 -288 73 -361
58 -448 -7 -39 -17 -79 -22 -89 -10 -19 -88 -50 -124 -50 -14 0 -54 33 -108
88 l-86 87 8 220 c13 321 12 939 -3 1170 -13 217 -16 782 -3 829 l7 29 26 -48
c14 -27 34 -73 45 -104z m-2982 -816 c7 -9 21 -13 35 -9 31 8 133 -24 145 -45
5 -10 11 -50 12 -89 2 -59 -1 -75 -18 -99 -29 -39 -86 -76 -171 -112 -91 -39
-161 -40 -323 -7 -85 18 -117 21 -123 12 -5 -6 -7 21 -4 59 8 130 92 241 222
292 46 18 210 17 225 -2z m-170 -686 c55 -28 103 -57 108 -63 24 -31 32 -133
32 -386 0 -225 -3 -287 -21 -390 -28 -165 -24 -390 8 -460 11 -25 24 -60 27
-78 l7 -31 -53 18 c-77 27 -292 118 -370 157 -37 19 -97 61 -133 93 -90 81
-126 93 -312 99 -145 4 -154 3 -205 -20 -68 -32 -111 -68 -165 -141 -60 -83
-86 -169 -72 -244 6 -32 20 -74 30 -95 l19 -38 -71 -46 c-164 -106 -410 -193
-674 -239 -175 -30 -308 -60 -384 -86 -30 -11 -56 -17 -59 -14 -8 7 29 232 53
331 26 104 66 188 96 204 34 19 99 192 99 266 0 30 6 34 123 94 276 142 433
241 612 386 254 205 294 231 456 289 144 53 161 62 351 197 80 58 182 123 225
146 43 23 98 55 123 72 25 16 46 30 47 30 2 0 48 -23 103 -51z m276 -133 c44
-19 145 -54 225 -76 159 -46 222 -73 414 -179 122 -67 189 -93 385 -147 46
-13 99 -41 180 -95 235 -158 448 -347 832 -738 l259 -264 -6 -111 c-11 -192
-38 -251 -129 -285 -60 -22 -211 -51 -268 -51 -60 0 -163 45 -292 126 -115 74
-229 134 -252 134 -7 0 -67 18 -135 40 -164 54 -259 76 -409 95 -232 30 -324
55 -687 187 -188 69 -191 70 -196 101 -3 18 -16 59 -28 92 -21 54 -23 77 -24
230 0 176 7 355 26 630 6 88 8 204 5 259 -6 79 -5 97 6 93 7 -3 49 -21 94 -41z
m-1078 -991 c141 -28 249 -95 302 -188 50 -87 37 -175 -34 -234 -71 -58 -131
-64 -320 -33 -229 39 -221 36 -241 80 -47 103 -5 231 111 340 52 48 71 60 88
56 11 -4 54 -13 94 -21z m-213 -560 c33 -30 99 -78 147 -106 48 -29 88 -55 88
-59 0 -22 -111 -107 -184 -140 -167 -79 -707 -249 -916 -288 -106 -21 -233
-37 -369 -47 l-74 -5 6 107 c9 152 18 213 30 213 6 0 47 15 92 34 79 34 112
41 354 71 78 10 166 29 235 52 131 42 365 138 456 187 36 20 67 36 70 36 3 0
32 -25 65 -55z m1280 -550 c235 -136 718 -341 1055 -448 81 -26 167 -60 195
-78 123 -79 471 -217 752 -299 104 -30 189 -90 219 -154 13 -28 24 -70 24 -93
0 -78 7 -76 -453 -77 -355 -1 -413 1 -497 18 -78 15 -164 20 -470 26 -342 6
-382 9 -455 29 -162 44 -265 112 -318 209 -29 54 -76 222 -101 362 -15 81 -28
540 -16 540 3 0 32 -16 65 -35z"/>
<path d="M12700 14473 c-14 -2 -49 -11 -77 -19 -41 -11 -53 -19 -53 -34 0 -24
0 -24 78 0 84 26 205 26 358 -1 125 -21 313 -30 377 -16 26 6 37 13 37 26 0
29 -23 32 -164 20 -119 -10 -142 -9 -250 10 -107 19 -240 25 -306 14z"/>
<path d="M12045 11519 c-73 -17 -147 -29 -190 -29 -131 0 -243 -78 -279 -193
-35 -113 -67 -415 -69 -662 l-2 -170 33 -83 c19 -45 44 -95 58 -111 30 -36
131 -89 275 -145 92 -35 127 -44 183 -44 37 -1 76 -4 87 -7 35 -12 224 16 312
46 176 58 270 116 307 189 78 152 105 379 79 645 -27 272 -52 385 -100 440
-39 44 -214 130 -293 144 -111 20 -268 13 -401 -20z m391 -20 c60 -11 183 -63
242 -102 18 -12 42 -38 52 -57 45 -86 85 -420 77 -635 -9 -226 -47 -357 -127
-429 -50 -45 -177 -107 -270 -131 -64 -17 -135 -17 -485 0 -100 4 -234 70
-300 147 -19 23 -44 69 -55 103 -38 114 -42 171 -25 368 46 539 67 609 195
666 124 54 549 97 696 70z"/>
<path d="M12335 11395 c-17 -8 -55 -35 -86 -59 -75 -59 -102 -114 -103 -211 0
-63 3 -78 29 -121 45 -72 81 -89 190 -89 83 0 96 3 160 35 63 32 73 40 98 91
16 31 31 80 34 110 7 74 -32 150 -101 196 -73 50 -173 71 -221 48z m136 -47
c48 -16 105 -56 126 -87 12 -19 17 -45 16 -97 -1 -79 -25 -140 -66 -167 -39
-25 -127 -47 -191 -47 -79 0 -123 23 -154 81 -20 37 -23 54 -19 106 6 83 29
119 112 175 75 51 112 58 176 36z"/>
<path d="M11847 11212 c-24 -26 -22 -69 4 -83 18 -9 26 -7 48 8 37 28 40 70 6
83 -35 13 -39 13 -58 -8z"/>
<path d="M11809 10891 c-22 -23 -29 -39 -29 -68 0 -56 46 -103 101 -103 33 0
55 24 75 84 15 42 15 48 0 71 -14 21 -68 45 -104 45 -8 0 -27 -13 -43 -29z"/>
<path d="M12286 10738 c-23 -7 -56 -28 -81 -52 -90 -90 -88 -253 3 -349 75
-80 232 -113 319 -68 40 21 107 86 138 136 27 43 34 195 11 230 -56 85 -257
138 -390 103z m191 -53 c43 -14 98 -36 123 -48 l45 -22 3 -70 c4 -90 -16 -141
-74 -195 -61 -56 -105 -74 -163 -65 -112 17 -191 68 -221 144 -30 76 -4 203
49 240 67 47 129 51 238 16z"/>
<path d="M9890 16856 c0 -23 22 -34 140 -66 63 -17 156 -42 205 -56 117 -33
216 -83 474 -244 269 -166 331 -194 331 -146 0 42 -209 162 -500 286 -184 79
-608 240 -632 240 -10 0 -18 -6 -18 -14z"/>
<path d="M9480 16734 c-63 -22 -292 -118 -743 -314 -54 -24 -96 -48 -94 -54
10 -31 60 -14 282 98 237 120 251 125 563 207 98 25 133 48 113 73 -18 21 -32
20 -121 -10z"/>
<path d="M9800 16719 c-191 -123 -620 -480 -620 -515 0 -33 26 -21 76 34 36
40 133 116 286 224 292 205 365 270 329 292 -5 3 -37 -13 -71 -35z"/>
<path d="M8900 16739 c-41 -5 -149 -19 -240 -30 -233 -28 -569 -84 -691 -115
-98 -25 -530 -191 -552 -213 -5 -5 -6 -14 -3 -20 15 -24 72 -9 180 48 141 75
188 94 350 136 236 62 697 132 954 144 152 7 187 16 158 40 -21 17 -70 20
-156 10z"/>
<path d="M10290 16640 c-106 -58 -749 -544 -750 -567 0 -20 18 -25 44 -11 14
7 77 58 141 113 137 118 219 176 425 305 168 105 238 160 226 178 -11 18 -25
15 -86 -18z"/>
<path d="M9616 16379 c-96 -82 -114 -105 -98 -121 14 -14 232 170 225 188 -10
26 -32 14 -127 -67z"/>
<path d="M10621 16378 c-21 -46 -52 -120 -67 -165 l-29 -82 -190 -67 c-197
-68 -255 -96 -255 -120 0 -26 51 -15 228 52 142 54 179 64 194 55 25 -16 35
-14 41 8 3 15 28 27 93 47 104 31 127 46 96 63 -15 8 -38 6 -91 -7 -39 -10
-73 -17 -75 -14 -12 11 35 135 70 185 69 102 71 106 54 117 -8 5 -19 10 -23
10 -5 0 -25 -37 -46 -82z"/>
<path d="M8315 16412 c-40 -26 -127 -119 -164 -176 -16 -26 -42 -77 -57 -114
-16 -37 -49 -92 -73 -122 -48 -60 -180 -257 -261 -391 -56 -95 -62 -97 -24
-13 15 33 39 95 55 139 22 62 33 81 49 83 11 2 18 7 15 12 -3 5 21 104 54 220
69 241 73 263 50 268 -13 2 -23 -15 -42 -70 -37 -105 -67 -210 -86 -308 -14
-69 -21 -84 -34 -82 -20 3 -23 -16 -3 -24 10 -4 6 -17 -20 -55 -18 -27 -103
-190 -189 -362 l-157 -312 5 260 c5 231 8 272 30 365 30 126 69 237 109 306
26 47 27 52 12 65 -14 11 -19 10 -34 -9 -31 -38 -80 -191 -101 -314 -21 -128
-44 -329 -59 -523 -5 -66 -12 -139 -16 -163 -5 -33 -3 -47 11 -62 10 -11 24
-20 31 -20 18 0 60 58 112 153 24 45 41 75 38 67 -18 -54 -116 -271 -159 -353
l-52 -98 -5 324 c-4 255 -8 327 -19 341 -10 12 -17 14 -27 5 -11 -9 -14 -72
-14 -328 0 -174 4 -333 9 -353 6 -27 5 -42 -5 -56 -32 -46 24 -43 75 4 49 43
80 106 166 334 80 213 179 414 282 577 76 118 193 276 200 269 2 -2 -7 -52
-20 -112 -40 -175 -49 -244 -45 -334 2 -69 6 -85 20 -88 14 -3 16 9 16 100 0
76 6 134 26 222 40 181 65 278 82 314 9 19 17 47 19 63 6 42 78 176 125 231
22 25 65 60 96 77 55 32 65 53 28 59 -10 1 -32 -6 -49 -16z"/>
<path d="M7840 16363 c-127 -64 -319 -187 -393 -253 -77 -68 -130 -154 -252
-403 -120 -245 -140 -297 -111 -297 20 0 42 43 100 198 110 294 203 419 424
570 84 58 138 86 345 181 72 32 83 54 31 59 -20 2 -66 -16 -144 -55z"/>
<path d="M10256 16329 c-59 -64 -190 -232 -225 -290 -21 -35 -28 -79 -12 -79
4 0 19 15 32 34 13 19 86 111 162 204 75 93 137 174 137 180 0 29 -43 7 -94
-49z"/>
<path d="M10710 16104 c0 -3 34 -54 76 -112 43 -58 79 -113 81 -122 2 -8 -3
-35 -12 -59 -17 -50 -19 -87 -5 -96 16 -10 36 50 55 160 20 118 37 165 65 172
21 6 27 27 10 38 -12 7 -36 -30 -65 -101 l-23 -56 -33 49 c-50 72 -109 133
-130 133 -11 0 -19 -3 -19 -6z"/>
<path d="M11037 16033 c-13 -12 -7 -207 8 -277 18 -84 46 -132 104 -181 42
-34 46 -36 58 -19 12 16 10 20 -14 32 -82 42 -100 86 -109 272 -7 160 -19 202
-47 173z"/>
<path d="M11378 16023 c-20 -23 -50 -84 -73 -150 l-18 -51 -57 49 c-48 42
-100 64 -100 43 0 -4 32 -40 71 -81 l71 -75 -7 -55 c-4 -30 -7 -90 -7 -133 0
-208 29 -297 172 -540 74 -126 108 -172 121 -165 20 13 6 45 -60 134 -92 125
-150 247 -175 366 l-6 30 127 -3 c139 -4 439 21 500 41 41 13 55 41 25 49 -11
3 -71 -1 -133 -8 -63 -8 -177 -17 -254 -21 l-140 -6 41 49 c54 65 122 167 139
208 10 24 11 36 3 44 -9 9 -16 5 -27 -12 -9 -13 -61 -83 -115 -155 -97 -128
-100 -131 -137 -131 l-39 0 0 114 c0 156 3 161 55 101 28 -32 47 -46 58 -42
24 9 10 42 -45 102 -57 62 -57 54 2 185 21 47 40 94 42 104 4 26 -15 31 -34 9z"/>
<path d="M11424 15975 c-11 -28 17 -44 174 -96 343 -114 405 -164 518 -421 93
-213 111 -283 127 -504 l4 -51 -44 31 c-45 31 -45 31 -179 31 -115 0 -133 2
-128 15 27 65 -2 74 -61 19 -32 -30 -63 -77 -111 -173 -68 -132 -101 -186
-116 -186 -4 0 -4 10 1 23 20 53 47 416 33 462 -13 46 -34 37 -37 -15 -1 -25
-9 -115 -18 -200 -29 -285 -29 -267 0 -290 25 -20 27 -20 56 -2 24 13 40 40
74 117 24 55 56 118 72 140 26 36 35 41 82 47 91 10 259 9 282 -3 12 -7 43
-34 69 -61 25 -28 51 -47 57 -44 16 10 14 41 -4 56 -13 11 -13 15 0 33 39 56
8 232 -81 466 -130 336 -179 390 -484 523 -118 52 -190 79 -253 92 -20 5 -29
2 -33 -9z"/>
<path d="M7172 15357 c-40 -47 -122 -300 -148 -454 -14 -79 -15 -132 -10 -278
4 -99 10 -213 14 -252 4 -40 6 -73 6 -73 -1 0 -17 28 -34 63 -43 82 -112 187
-138 210 -26 24 -51 13 -28 -12 9 -9 56 -95 104 -191 69 -139 91 -175 107
-175 14 0 19 6 17 20 -1 13 6 24 20 30 12 6 44 48 70 95 51 90 123 166 256
274 54 43 72 63 70 79 -2 11 -9 22 -15 25 -26 8 -203 -186 -371 -408 -8 -11
-20 29 -32 110 -16 113 -8 466 13 560 8 36 43 127 77 203 58 130 69 176 44
184 -6 2 -16 -2 -22 -10z"/>
<path d="M8892 14809 c-29 -5 -78 -18 -110 -30 -31 -11 -78 -28 -104 -37 -71
-26 -100 -59 -109 -129 -12 -86 -12 -87 201 -77 320 14 402 11 520 -20 262
-69 541 -176 708 -273 62 -36 115 -64 117 -61 10 10 -188 145 -269 184 -105
49 -402 155 -514 183 -118 30 -250 41 -497 41 l-225 0 13 33 c13 34 49 56 197
118 92 39 190 47 390 30 327 -26 609 -103 875 -239 117 -59 219 -160 289 -285
27 -48 46 -90 43 -93 -3 -3 -24 -8 -46 -11 -69 -9 -46 -23 39 -23 48 0 80 4
80 10 0 16 -88 169 -132 227 -82 111 -144 159 -313 239 -246 117 -529 190
-829 214 -149 12 -249 11 -324 -1z"/>
<path d="M11930 14761 c-11 -22 -45 -102 -75 -178 -31 -76 -83 -195 -117 -266
-50 -102 -59 -130 -49 -140 19 -18 50 26 130 188 133 267 181 395 160 421 -18
22 -27 17 -49 -25z"/>
<path d="M8167 14393 c-54 -74 -93 -151 -123 -238 -25 -73 -28 -96 -32 -268
-3 -130 -1 -192 7 -200 6 -6 14 -7 18 -3 5 4 8 103 9 219 0 250 2 256 110 419
82 122 80 118 61 118 -9 0 -31 -21 -50 -47z"/>
<path d="M8919 14237 c-52 -15 -255 -132 -318 -183 -2 -2 2 -10 8 -18 10 -12
29 -3 121 59 155 104 178 110 385 109 193 -1 324 -23 431 -73 83 -39 121 -80
204 -221 70 -119 92 -142 111 -123 14 14 -51 135 -130 239 -61 83 -72 92 -151
132 -119 60 -231 82 -445 88 -122 3 -183 0 -216 -9z"/>
<path d="M10187 14149 c5 -5 27 -12 49 -14 44 -6 37 -1 -20 14 -26 7 -36 7
-29 0z"/>
<path d="M10045 13943 c4 -21 23 -72 42 -113 50 -106 63 -167 63 -307 0 -142
-24 -426 -45 -525 -18 -85 -60 -174 -124 -259 l-50 -66 -102 -12 c-222 -27
-345 -96 -414 -231 -10 -20 -20 -66 -23 -106 -4 -66 -2 -76 27 -132 45 -83 83
-127 104 -119 25 9 22 19 -30 94 -61 89 -74 127 -62 182 15 67 44 114 99 164
57 51 66 54 290 89 80 12 147 27 149 32 2 5 28 34 58 64 96 95 109 141 144
502 34 366 19 559 -58 717 -21 43 -34 59 -52 61 -22 4 -23 2 -16 -35z"/>
<path d="M8733 13889 c-13 -7 -23 -15 -23 -18 0 -12 154 -157 220 -208 209
-160 295 -200 552 -253 180 -38 291 -44 296 -18 2 12 -9 23 -34 35 -31 15 -42
29 -64 84 -30 74 -99 169 -161 223 -49 42 -131 70 -249 86 -47 6 -123 24 -170
40 -71 24 -108 30 -215 35 -89 3 -137 1 -152 -6z m387 -58 c19 -6 85 -22 145
-37 126 -30 219 -71 263 -117 31 -33 147 -226 139 -233 -6 -6 -233 14 -293 25
-57 11 -128 39 -103 40 42 2 118 127 107 177 -7 35 -23 10 -28 -43 -4 -51 -9
-60 -38 -79 -18 -12 -50 -25 -72 -29 -35 -6 -47 -2 -91 25 -30 20 -58 48 -69
71 -11 21 -24 40 -30 44 -16 10 -11 61 8 77 9 8 29 19 45 26 37 16 36 42 -3
42 -19 0 -42 -11 -62 -29 -29 -26 -33 -36 -33 -79 l0 -50 -59 49 c-32 27 -81
70 -110 95 l-51 46 150 -5 c83 -3 166 -11 185 -16z"/>
<path d="M9152 13744 c-31 -21 -28 -62 6 -103 32 -39 73 -44 116 -16 27 18 32
51 17 104 -6 22 -13 25 -62 28 -37 2 -61 -2 -77 -13z m115 -69 c-4 -8 -18 -21
-32 -27 -22 -10 -28 -9 -36 3 -15 25 -10 39 24 59 32 20 32 20 41 1 5 -11 6
-27 3 -36z"/>
<path d="M10784 13660 c-99 -22 -203 -108 -254 -210 -47 -93 -60 -151 -60
-272 0 -113 -9 -172 -42 -277 -17 -52 -20 -81 -15 -154 4 -84 8 -96 61 -201
69 -138 82 -193 66 -283 -12 -73 -28 -116 -66 -181 l-25 -42 -39 49 c-59 75
-115 108 -115 70 0 -6 -28 -11 -63 -13 -53 -2 -67 -7 -90 -29 -22 -23 -27 -36
-26 -75 0 -26 8 -62 17 -79 31 -60 169 -78 225 -30 29 24 42 29 36 14 -10 -26
17 -30 43 -6 30 29 117 206 132 271 28 117 6 237 -63 356 -63 106 -71 200 -31
351 20 76 25 119 25 215 0 159 25 249 102 369 33 52 65 72 170 106 37 13 70
26 73 31 9 15 -28 27 -61 20z m-425 -1585 c22 -24 41 -49 41 -54 0 -5 -16 -23
-35 -40 -32 -28 -42 -31 -104 -31 -79 0 -99 15 -108 77 -7 51 14 73 70 74 23
0 51 4 62 9 30 13 29 13 74 -35z"/>
<path d="M8480 13505 c-11 -13 -6 -22 29 -55 107 -102 275 -199 399 -231 114
-29 671 -54 686 -31 2 4 1 14 -4 22 -8 13 -56 15 -287 16 -252 1 -286 3 -362
22 -115 30 -225 90 -323 176 -103 90 -121 101 -138 81z"/>
<path d="M10720 12912 c-34 -11 -40 -57 -14 -98 36 -54 80 -52 104 6 12 29 11
33 -12 54 -33 31 -60 44 -78 38z m43 -95 c-8 -12 -33 20 -33 42 1 12 6 10 20
-8 11 -12 17 -28 13 -34z"/>
<path d="M10885 12828 c12 -86 12 -84 -44 -113 -56 -28 -68 -42 -52 -58 13
-13 61 8 109 48 34 28 39 56 26 138 -5 28 -11 37 -26 37 -18 0 -19 -5 -13 -52z"/>
<path d="M10555 12640 c-10 -17 19 -55 83 -107 128 -107 216 -143 353 -143 51
0 68 4 73 15 7 18 -3 23 -129 60 -102 31 -177 66 -286 136 -82 53 -85 54 -94
39z"/>
<path d="M9724 12351 c-52 -24 -64 -54 -71 -185 -6 -93 -5 -98 13 -94 17 3 20
15 24 108 3 58 8 110 13 117 20 32 216 44 269 17 20 -10 34 -12 40 -6 48 48
-196 85 -288 43z"/>
<path d="M13674 10059 c-15 -25 18 -34 125 -32 103 1 151 12 151 33 0 14 -267
13 -276 -1z"/>
<path d="M8294 9998 c-13 -21 61 -73 148 -103 133 -45 241 -95 423 -193 225
-122 270 -136 453 -137 114 0 144 3 152 15 5 8 6 18 4 22 -3 4 -71 8 -152 8
-204 0 -207 1 -513 163 -81 43 -202 100 -269 127 -67 27 -144 63 -170 80 -51
33 -65 36 -76 18z"/>
<path d="M13885 9965 c-27 -7 -67 -21 -88 -30 -32 -13 -37 -19 -27 -30 10 -12
17 -12 48 5 21 10 69 23 107 27 52 6 70 12 70 23 0 20 -47 23 -110 5z"/>
<path d="M14000 9754 c-8 -1 -45 -6 -82 -9 -74 -7 -113 -27 -88 -45 19 -14
100 -6 168 16 69 23 71 53 2 38z"/>
<path d="M11807 8848 c-7 -263 -2 -361 17 -355 22 7 65 102 101 223 39 131 41
159 11 159 -15 0 -24 -19 -46 -93 -15 -51 -29 -94 -31 -96 -2 -3 -5 74 -6 171
-1 190 -7 243 -27 243 -10 0 -14 -56 -19 -252z"/>
<path d="M12099 8893 c-1 -4 -1 -11 0 -15 0 -4 -14 -45 -33 -90 -54 -134 -69
-189 -58 -200 19 -19 48 26 81 127 35 106 44 175 24 182 -7 3 -14 1 -14 -4z"/>
<path d="M1178 8863 c7 -3 16 -2 19 1 4 3 -2 6 -13 5 -11 0 -14 -3 -6 -6z"/>
<path d="M12151 8717 c-16 -43 -111 -415 -111 -436 0 -32 26 -25 43 12 39 81
117 364 117 425 0 30 -37 30 -49 -1z"/>
<path d="M12570 8689 c-13 -6 -63 -32 -111 -59 -47 -28 -89 -50 -92 -50 -2 0
-4 7 -3 16 0 9 -5 19 -11 21 -9 3 -13 -6 -13 -26 0 -17 -4 -31 -10 -31 -9 0
-178 -207 -213 -261 -17 -26 -14 -39 10 -39 7 0 50 50 94 110 60 82 99 124
152 164 102 76 115 82 186 100 69 18 91 30 91 52 0 16 -43 18 -80 3z"/>
<path d="M13675 7315 c12 -99 61 -326 70 -325 25 2 -24 284 -60 348 -15 26
-15 26 -10 -23z"/>
<path d="M13835 7277 c3 -100 17 -197 29 -197 9 0 11 19 8 63 -8 131 -39 247
-37 134z"/>
<path d="M10881 7163 c54 -148 71 -184 83 -180 19 7 10 69 -23 154 -34 86 -64
133 -86 133 -9 0 -1 -32 26 -107z"/>
<path d="M11093 7173 c-7 -32 -28 -123 -47 -203 -30 -125 -33 -147 -21 -159
13 -13 16 -10 30 22 17 42 72 284 76 337 3 35 -5 60 -19 60 -4 0 -13 -26 -19
-57z"/>
<path d="M14008 7130 c-8 -53 -11 -93 -6 -96 5 -3 11 -4 14 -1 7 6 24 117 24
155 0 62 -17 31 -32 -58z"/>
<path d="M11230 7180 c0 -12 -23 -91 -52 -176 -40 -119 -49 -157 -40 -166 9
-9 15 -9 26 2 31 33 100 273 94 326 -4 33 -28 46 -28 14z"/>
<path d="M13896 7098 c-16 -131 -18 -200 -4 -196 14 5 25 76 27 176 1 70 -15
84 -23 20z"/>
<path d="M11470 7093 c0 -10 -10 -34 -22 -53 -36 -60 -128 -249 -128 -265 0
-32 30 -13 64 41 41 66 114 230 118 264 2 16 -3 25 -14 28 -12 2 -18 -3 -18
-15z"/>
<path d="M6650 7019 c-210 -21 -358 -42 -448 -64 l-97 -23 -65 28 c-101 44
-167 63 -195 56 -34 -9 -26 -19 32 -41 26 -10 61 -27 77 -39 17 -11 52 -27 79
-36 46 -15 56 -15 176 6 70 13 211 32 312 44 262 30 262 30 279 40 20 12 3 28
-35 34 -17 2 -68 0 -115 -5z"/>
<path d="M11326 6960 c-14 -71 -15 -89 -1 -100 30 -25 49 68 21 106 -14 18
-15 18 -20 -6z"/>
<path d="M6665 6864 c-109 -31 -342 -59 -575 -69 -187 -8 -264 -25 -246 -54 6
-9 11 -9 22 0 12 10 29 9 82 -2 78 -16 447 -15 547 1 134 23 272 94 251 129
-9 14 -18 13 -81 -5z"/>
<path d="M9327 6806 c-95 -51 -212 -127 -415 -273 -249 -178 -302 -221 -432
-352 -107 -107 -120 -125 -178 -239 -54 -103 -61 -123 -47 -128 22 -9 29 0 58
73 50 124 150 246 309 379 114 95 158 125 465 310 277 167 366 229 360 247 -8
24 -55 17 -120 -17z"/>
<path d="M9612 6397 c-162 -158 -319 -297 -516 -457 -197 -160 -205 -167 -182
-176 26 -10 81 21 217 123 185 138 386 312 516 446 118 122 160 177 148 197
-15 24 -45 1 -183 -133z"/>
<path d="M13141 6263 c-44 -90 -81 -168 -81 -174 0 -47 85 95 140 233 54 138
26 109 -59 -59z"/>
<path d="M13372 6153 c-62 -161 -65 -170 -53 -177 10 -7 29 31 87 173 35 86
41 116 25 126 -5 3 -32 -52 -59 -122z"/>
<path d="M13526 6202 c-3 -6 -11 -34 -16 -62 -5 -28 -21 -79 -35 -113 -13 -33
-22 -63 -20 -65 11 -11 37 12 51 45 26 62 49 182 37 194 -7 7 -13 7 -17 1z"/>
<path d="M13221 6105 c-20 -50 -20 -54 -11 -60 13 -8 32 42 27 69 -3 18 -5 17
-16 -9z"/>
<path d="M9608 6035 c-94 -34 -119 -80 -121 -221 -2 -81 1 -94 27 -141 34 -62
214 -241 301 -300 157 -106 475 -235 698 -283 55 -12 196 -55 314 -96 278 -96
330 -109 569 -139 248 -31 333 -47 459 -87 97 -30 102 -33 176 -107 41 -42
130 -152 196 -246 146 -207 170 -236 313 -395 61 -69 184 -222 273 -339 89
-118 195 -253 236 -299 92 -103 178 -175 199 -167 10 4 35 -13 71 -49 35 -34
105 -82 188 -130 244 -139 276 -169 376 -367 75 -149 124 -216 150 -206 31 12
17 44 -53 122 -55 63 -77 98 -111 176 -50 120 -60 130 -292 282 -95 63 -202
141 -235 172 -40 37 -67 55 -77 51 -21 -8 -175 124 -241 206 -28 35 -110 142
-182 238 -71 96 -188 238 -257 315 -145 159 -173 194 -310 390 -135 192 -215
286 -282 331 -100 66 -300 119 -543 144 -280 29 -525 87 -933 224 -356 119
-516 188 -675 293 -77 51 -181 134 -182 144 0 4 17 3 38 -2 128 -30 233 18
268 123 26 80 22 137 -19 218 -19 38 -34 70 -32 70 11 0 105 -38 185 -74 93
-43 213 -87 234 -85 6 0 -9 8 -34 19 -25 10 -70 32 -99 50 -86 50 -181 96
-241 115 -30 9 -68 23 -85 30 -34 14 -161 35 -203 34 -15 0 -43 -6 -64 -14z
m162 -41 c56 -12 75 -22 100 -50 69 -79 90 -155 66 -239 -28 -94 -34 -97 -197
-94 l-141 3 -27 40 c-45 68 -54 100 -49 180 6 87 28 133 78 158 43 22 81 22
170 2z"/>
<path d="M10824 5664 c4 -11 34 -93 66 -184 76 -218 77 -220 95 -220 25 0 18
51 -28 182 -51 146 -95 231 -121 236 -15 3 -17 0 -12 -14z"/>
<path d="M11175 5628 c-2 -7 -6 -104 -8 -216 -5 -185 -4 -203 11 -200 32 6 45
75 46 239 1 119 -2 160 -13 172 -16 20 -30 22 -36 5z"/>
<path d="M11289 5608 c-8 -15 -12 -99 -13 -263 -1 -207 1 -240 14 -240 23 0
39 99 46 295 6 171 0 230 -25 230 -6 0 -16 -10 -22 -22z"/>
<path d="M7815 5560 c-10 -15 21 -109 76 -236 27 -63 72 -167 100 -231 104
-239 278 -795 305 -973 7 -52 14 -140 14 -195 0 -199 12 -355 27 -355 36 0 42
124 19 380 -17 177 -41 307 -90 477 -44 150 -151 465 -255 751 -45 122 -81
225 -81 228 0 14 -54 130 -68 147 -17 19 -38 22 -47 7z"/>
<path d="M10990 5512 c0 -4 4 -12 9 -17 5 -6 23 -53 41 -105 36 -107 56 -144
72 -134 22 14 -29 182 -74 239 -18 24 -48 34 -48 17z"/>
<path d="M12668 5365 c-15 -60 -32 -132 -38 -160 -6 -27 -13 -58 -16 -67 -3
-12 0 -18 9 -18 15 0 42 95 67 242 20 116 6 119 -22 3z"/>
<path d="M12486 5408 c-11 -64 -46 -303 -46 -321 0 -41 25 -6 41 56 21 82 43
261 35 282 -9 25 -23 17 -30 -17z"/>
<path d="M9046 5302 c-8 -15 -32 -91 -55 -167 -41 -145 -64 -203 -149 -390
-50 -110 -137 -325 -192 -476 -26 -68 -28 -81 -14 -86 24 -9 36 16 102 217 44
133 89 241 152 368 86 173 169 382 192 482 17 74 -7 109 -36 52z"/>
<path d="M12808 5242 c-38 -57 -80 -143 -74 -150 10 -9 21 8 66 96 45 89 49
117 8 54z"/>
<path d="M12905 5190 c-90 -92 -104 -119 -41 -80 42 25 146 138 146 157 0 25
-17 13 -105 -77z"/>
<path d="M9829 4618 c-61 -48 -484 -453 -532 -509 -18 -20 -93 -102 -167 -181
-74 -79 -187 -204 -251 -278 -120 -139 -469 -571 -469 -580 0 -3 5 -12 10 -20
16 -22 85 57 208 238 183 268 684 801 1027 1094 184 157 280 252 270 268 -12
20 -44 9 -96 -32z"/>
<path d="M11625 4419 c-238 -88 -480 -244 -588 -377 -47 -58 -60 -69 -80 -65
-31 6 -43 -12 -28 -41 11 -19 2 -38 -74 -161 -98 -159 -152 -265 -192 -380
-27 -77 -28 -87 -28 -277 0 -197 5 -227 34 -209 12 8 11 29 -4 141 -15 111
-16 139 -5 187 17 78 80 243 129 341 48 95 175 304 195 321 47 40 565 -198
866 -397 121 -80 200 -154 450 -421 169 -181 345 -341 375 -341 48 0 49 11 36
293 -8 184 -9 284 -2 337 32 234 34 261 23 272 -46 46 -65 -121 -60 -546 2
-209 0 -312 -7 -306 -5 4 -55 41 -110 83 -115 86 -137 108 -310 315 -145 173
-240 261 -400 367 -175 116 -460 262 -697 356 -57 22 -107 44 -111 48 -15 15
92 129 193 205 118 89 155 109 310 166 150 55 205 82 205 100 0 24 -35 21
-120 -11z"/>
<path d="M10609 4042 c-121 -78 -546 -390 -709 -523 -143 -116 -178 -155 -514
-568 -141 -173 -156 -195 -143 -209 14 -13 19 -11 47 19 17 19 79 99 137 179
58 80 140 185 181 234 223 263 524 510 876 719 181 106 219 136 210 161 -9 23
-35 20 -85 -12z"/>
</g>
</svg>
